<svg width="32" height="32" viewBox="0 0 110 120" fill="none" xmlns="http://www.w3.org/2000/svg">
  <!-- Borde exterior del óvalo - Gris Carbón -->
  <ellipse cx="55" cy="60" rx="50" ry="55" fill="white" stroke="#4A4A46" stroke-width="4"/>
  
  <!-- Plato - Terracotta -->
  <circle cx="42" cy="47" r="20" fill="none" stroke="#A84A35" stroke-width="7"/>
  <circle cx="42" cy="47" r="9" fill="none" stroke="#A84A35" stroke-width="4" opacity="0.7"/>
  
  <!-- Copa - Terracotta -->
  <path d="M62 33 C62 33, 58 50, 58 60 C58 67, 62 73, 68 73 C74 73, 78 67, 78 60 C78 50, 74 33, 74 33 L62 33Z" fill="#A84A35"/>
  <line x1="68" y1="73" x2="68" y2="85" stroke="#A84A35" stroke-width="5"/>
  <line x1="60" y1="85" x2="76" y2="85" stroke="#A84A35" stroke-width="4"/>
  
  <!-- Líneas horizontales - Oliva -->
  <line x1="20" y1="77" x2="90" y2="77" stroke="#5C5C4A" stroke-width="3"/>
  <line x1="22" y1="84" x2="88" y2="84" stroke="#5C5C4A" stroke-width="2.5"/>
  <line x1="25" y1="91" x2="85" y2="91" stroke="#5C5C4A" stroke-width="2"/>
  
  <!-- Base del bowl - Beige -->
  <path d="M25 95 Q55 112, 85 95" fill="#C4B99A" stroke="none"/>
</svg>
